<?xml version="1.0" standalone="no"?><!DOCTYPE svg PUBLIC "-//W3C//DTD SVG 1.1//EN" "http://www.w3.org/Graphics/SVG/1.1/DTD/svg11.dtd"><svg t="1507798163328" class="icon" style="" viewBox="0 0 1024 1024" version="1.1" xmlns="http://www.w3.org/2000/svg" p-id="2359" xmlns:xlink="http://www.w3.org/1999/xlink" width="200" height="200"><defs><style type="text/css"></style></defs><path d="M178.652 368.296h-100.012c-24.098 0-43.703 19.599-43.703 43.69v533.374c0 24.101 19.606 43.708 43.703 43.708h100.012c24.095 0 43.698-19.608 43.698-43.708v-533.374c0-24.090-19.602-43.69-43.698-43.69zM941.189 376.547l-1.153-0.306c-29.253-7.683-30.225-7.94-346.959-7.946 23.675-71.131 26.823-89.055 26.823-164.719 0-55.935-23.439-97.877-37.412-117.899-21.843-31.302-48.854-50.748-70.492-50.748-27.022 0-43.444 22.155-43.707 43.577-0.773 64.452-70.879 157.327-127.21 231.954-46.494 61.593-77.758 98.116-77.758 120.771v497.126l8.781 2.505c8.515 2.445 21.383 6.14 153.876 36.663l0.158 0.035c9.78 2.202 98.11 21.509 186.809 21.509h182.202c34.755 0 56.21-10.476 69.469-33.947 3.444-4.949 29.282-43.362 56.807-119.591 26.515-73.429 59.639-197.564 66.876-371.979 0.157-4.129 0.3-6.482 0.417-8.371 0.205-3.361 0.342-5.581 0.342-12.99 0-23.97-12.538-55.545-47.87-65.643z" p-id="2360" fill="#dc2929"></path></svg>