<?xml version="1.0" standalone="no"?><!DOCTYPE svg PUBLIC "-//W3C//DTD SVG 1.1//EN" "http://www.w3.org/Graphics/SVG/1.1/DTD/svg11.dtd"><svg t="1507797754070" class="icon" style="" viewBox="0 0 1024 1024" version="1.1" xmlns="http://www.w3.org/2000/svg" p-id="2206" xmlns:xlink="http://www.w3.org/1999/xlink" width="200" height="200"><defs><style type="text/css"></style></defs><path d="M571.032926 149.415616c20.988147 0 39.098401 15.455127 44.047413 37.581186l2.986265 12.745813a332.161806 332.161806 0 0 1 4.997178 57.178552c0 46.991533-4.533584 83.206021-13.865663 110.714581l-24.401882 71.95936 76.836124 0.319097c74.156914 0.301035 186.936595 0.830856 197.809972 1.03556 19.428786 0.818815 27.081091 7.363311 33.697836 18.345061 6.755221 11.234619 7.911195 22.457197 7.561995 30.344309-5.033302 30.87413-67.251176 307.952587-77.697084 349.688052a48.755597 48.755597 0 0 1-15.105927 16.129445c-10.457949 6.83349-11.144309 6.83349-15.894637 6.83349l-450.101223 0.024083 0.626152-403.296331c108.8-33.607526 187.948071-133.045343 191.084854-248.353716l0.08429-3.016369-0.162559-1.99285 0.024083-1.180057 0.078269-4.714205c-0.006021-24.251364 11.698213-50.345061 37.394544-50.345061z m-373.168768 322.167451v390.953904H123.231609V471.583067h74.632549z m373.168768-377.022013c-55.763688 0-92.935466 47.7381-92.935466 105.193603 0 3.233114-0.25889 6.333772 0 9.43443-2.920038 107.439323-88.829351 193.81223-191.036689 205.66096l-0.78269 502.330762h9.976293c-0.012041-0.018062 0.102352-0.030103 0.463594-0.030103 0.373283 0 0.487676 0.012041 0.475635 0.030103l494.810913-0.030103h0.307055c18.676199 0 29.224459-4.834619 46.238946-15.954845 16.213735-10.674694 28.477893-25.286924 36.473378-41.789652 2.209595-3.317404 79.027658-344.191157 80.990404-364.420696 1.535278-21.566134-3.20301-43.878833-15.130009-63.704986-18.796613-31.163123-46.106491-43.752399-79.142051-45.137159-1.715898-0.264911-199.881091-1.083725-199.881091-1.083725 13.125118-38.695014 16.737535-84.813547 16.737535-128.138476 0-28.122672-3.094638-55.468674-8.796237-81.81524l-0.493697 0.054186c-10.331515-46.172719-50.369144-80.599059-98.275823-80.599059z m-356.684102 322.16745H106.746943c-21.584196 0-39.050235 17.809219-39.050236 39.754657v421.153716c0 21.939417 17.46604 39.748636 39.050236 39.748636h107.601881c21.584196 0 39.050235-17.809219 39.050235-39.748636V456.483161c0-21.945437-17.46604-39.754657-39.050235-39.754657z m82.8508 500.446284h-0.939229c0.012041 0.012041 0.09031 0.024083 0.198683 0.054187-0.078269 0.030103-0.078269 0.042145 0 0.042144l0.264911-0.018062a3.37159 3.37159 0 0 0 0.276952 0.018062c0.08429 0 0.09031-0.012041 0-0.042144a0.903104 0.903104 0 0 0 0.198683-0.054187z" p-id="2207" fill="#dc2929"></path></svg>