<?xml version="1.0" standalone="no"?><!DOCTYPE svg PUBLIC "-//W3C//DTD SVG 1.1//EN" "http://www.w3.org/Graphics/SVG/1.1/DTD/svg11.dtd"><svg t="1509085764536" class="icon" style="" viewBox="0 0 1024 1024" version="1.1" xmlns="http://www.w3.org/2000/svg" p-id="3374" xmlns:xlink="http://www.w3.org/1999/xlink" width="200" height="200"><defs><style type="text/css"></style></defs><path d="M501.1456 967.4752l-0.9216-0.9216C500.6336 966.8608 500.8384 967.168 501.1456 967.4752z" p-id="3375" fill="#ffffff"></path><path d="M645.0176 788.7872 645.3248 788.48 645.0176 788.48Z" p-id="3376" fill="#ffffff"></path><path d="M378.1632 788.48 378.7776 789.0944 378.7776 788.48Z" p-id="3377" fill="#ffffff"></path><path d="M313.7536 451.584m-44.6464 0a43.6 43.6 0 1 0 89.2928 0 43.6 43.6 0 1 0-89.2928 0Z" p-id="3378" fill="#ffffff"></path><path d="M512 451.584m-44.6464 0a43.6 43.6 0 1 0 89.2928 0 43.6 43.6 0 1 0-89.2928 0Z" p-id="3379" fill="#ffffff"></path><path d="M710.2464 451.584m-44.6464 0a43.6 43.6 0 1 0 89.2928 0 43.6 43.6 0 1 0-89.2928 0Z" p-id="3380" fill="#ffffff"></path><path d="M849.6128 123.0848 174.3872 123.0848c-59.904 0-108.8512 46.08-108.8512 102.4l0 430.08c0 56.32 49.0496 102.4 108.8512 102.4l177.3568 0 147.2512 137.1136 0.9216 0.9216c3.4816 3.072 8.192 4.9152 13.4144 4.9152 4.608 0 8.9088-1.536 12.288-4.096l3.2768-3.072 143.1552-135.8848 177.5616 0c59.904 0 108.8512-46.08 108.8512-102.4l0-430.08C958.464 169.1648 909.4144 123.0848 849.6128 123.0848zM914.944 638.8736c0 43.008-37.376 78.1312-83.1488 78.1312L715.1616 717.0048l-61.3376 0-0.3072 0.3072L513.1264 850.5344 370.4832 717.6192l-0.7168-0.6144-61.8496 0-115.712 0c-45.6704 0-83.1488-35.1232-83.1488-78.1312L109.056 242.176c0-43.008 37.376-78.1312 83.1488-78.1312l639.5904 0c45.6704 0 83.1488 35.1232 83.1488 78.1312L914.944 638.8736z" p-id="3381" fill="#ffffff"></path></svg>