<?xml version="1.0" standalone="no"?><!DOCTYPE svg PUBLIC "-//W3C//DTD SVG 1.1//EN" "http://www.w3.org/Graphics/SVG/1.1/DTD/svg11.dtd"><svg t="1503825416836" class="icon" style="" viewBox="0 0 1024 1024" version="1.1" xmlns="http://www.w3.org/2000/svg" p-id="6462" xmlns:xlink="http://www.w3.org/1999/xlink" width="200" height="200"><defs><style type="text/css"></style></defs><path d="M896 0h-768c-70.656 0-128 57.344-128 128v768c0 70.656 57.344 128 128 128h768c70.656 0 128-57.344 128-128v-768c0-70.656-57.344-128-128-128z m-17.92 347.136l-412.672 411.136c-18.944 18.944-48.128 22.016-70.144 8.704-4.096-2.56-8.192-5.632-11.264-8.704l-237.568-237.056c-22.528-22.528-22.528-58.88 0-81.408s59.392-22.528 81.92 0l197.12 196.096 372.224-370.688c22.528-22.528 59.392-22.528 81.92 0 20.992 23.04 20.992 59.392-1.536 81.92z" p-id="6463" fill="#d81e06"></path></svg>