<?xml version="1.0" standalone="no"?><!DOCTYPE svg PUBLIC "-//W3C//DTD SVG 1.1//EN" "http://www.w3.org/Graphics/SVG/1.1/DTD/svg11.dtd"><svg t="1507798219845" class="icon" style="" viewBox="0 0 1024 1024" version="1.1" xmlns="http://www.w3.org/2000/svg" p-id="3054" xmlns:xlink="http://www.w3.org/1999/xlink" width="200" height="200"><defs><style type="text/css"></style></defs><path d="M487.934 73.189c10.955-22.195 28.878-22.195 39.831 0l113.291 229.551c10.955 22.195 39.956 43.267 64.45 46.826l253.325 36.811c24.494 3.558 30.032 20.606 12.308 37.883l-183.308 178.678c-17.724 17.276-28.802 51.37-24.619 75.764l43.274 252.302c4.183 24.395-10.317 34.931-32.224 23.412l-226.581-119.119c-21.908-11.517-57.757-11.517-79.664 0l-226.581 119.12c-21.908 11.517-36.409 0.982-32.224-23.412l43.274-252.302c4.183-24.395-6.894-58.49-24.619-75.765l-183.308-178.682c-17.724-17.276-12.185-34.323 12.308-37.884l253.325-36.81c24.494-3.558 53.495-24.631 64.45-46.826l113.291-229.548z" p-id="3055" fill="#dc2929"></path></svg>