<?xml version="1.0" standalone="no"?><!DOCTYPE svg PUBLIC "-//W3C//DTD SVG 1.1//EN" "http://www.w3.org/Graphics/SVG/1.1/DTD/svg11.dtd"><svg t="1504606486779" class="icon" style="" viewBox="0 0 1025 1024" version="1.1" xmlns="http://www.w3.org/2000/svg" p-id="4715" xmlns:xlink="http://www.w3.org/1999/xlink" width="200.1953125" height="200"><defs><style type="text/css"></style></defs><path d="M849.748179 181.129792 661.547001 181.129792 661.547001 115.648358c0-28.237442-22.943626-51.213815-51.162648-51.213815L409.115953 64.434542c-28.220045 0-51.179021 22.976373-51.179021 51.213815l0 65.481435-188.184804 0c-28.203672 0-51.162648 22.97535-51.162648 51.212792l0 79.678443c0 28.236419 22.958976 51.231212 51.162648 51.231212l31.476362 0 0 473.763353c0 65.898964 53.549112 119.518687 119.394861 119.518687l378.252581 0c65.830399 0 119.395885-53.619724 119.395885-119.517664L818.271817 363.253262l31.476362 0c28.219022 0 51.162648-22.994793 51.162648-51.231212l0-79.678443C900.910826 204.105142 877.967201 181.129792 849.748179 181.129792zM414.794551 121.344353l189.911204 0 0 59.785439L414.794551 181.129792 414.794551 121.344353zM761.414197 837.017639c0 34.524937-28.045052 62.60683-62.537242 62.60683l-378.252581 0c-34.491167 0-62.537242-28.080869-62.537242-62.607853L258.087133 363.253262l503.328087 0L761.41522 837.017639zM844.068557 306.325031 175.4471 306.325031l0-68.285428 225.829951 0c2.542015 0.401155 5.173061 0.60992 7.838901 0.60992l201.268401 0c2.664817 0 5.277443-0.208764 7.855275-0.60992l225.829951 0L844.06958 306.325031zM510.881473 812.282118c15.696223 0 28.429833-12.751007 28.429833-28.463604L539.311306 462.841082c0-15.712597-12.73361-28.464627-28.429833-28.464627-15.694177 0-28.427786 12.75203-28.427786 28.464627L482.453686 783.817491C482.453686 799.531111 495.187296 812.282118 510.881473 812.282118zM658.130018 812.282118c15.714644 0 28.449277-12.751007 28.449277-28.463604L686.579295 462.841082c0-15.712597-12.73361-28.464627-28.449277-28.464627-15.693153 0-28.411413 12.75203-28.411413 28.464627L629.718605 783.817491C629.718605 799.531111 642.436865 812.282118 658.130018 812.282118zM363.633951 812.282118c15.694177 0 28.42881-12.751007 28.42881-28.463604L392.06276 462.841082c0-15.712597-12.73361-28.464627-28.42881-28.464627-15.712597 0-28.429833 12.75203-28.429833 28.464627L335.204117 783.817491C335.204117 799.531111 347.92033 812.282118 363.633951 812.282118z" p-id="4716" fill="#ca4d2d"></path></svg>