<?xml version="1.0" standalone="no"?><!DOCTYPE svg PUBLIC "-//W3C//DTD SVG 1.1//EN" "http://www.w3.org/Graphics/SVG/1.1/DTD/svg11.dtd"><svg t="1513578408252" class="icon" style="" viewBox="0 0 1024 1024" version="1.1" xmlns="http://www.w3.org/2000/svg" p-id="3655" xmlns:xlink="http://www.w3.org/1999/xlink" width="200" height="200"><defs><style type="text/css"></style></defs><path d="M877.970624 753.433748c1.482771-6.52767 0.088004-13.364379-3.813862-18.768459-1.214664-1.697665-29.980825-41.871643-59.165518-97.614202-26.756387-51.122331-58.634422-125.286448-58.634422-188.368158 0-70.920236-13.774725-130.831744-40.931225-178.098257-6.071276-10.607592-20.706601-14.645558-31.324426-8.433066-10.973936 6.355755-14.748912 20.509103-8.408507 31.546483 23.069415 40.178071 34.769898 92.320639 34.769898 154.983817 0 45.036729 13.241582 98.42773 39.383986 158.695349 21.985734 50.753941 48.411593 95.466282 66.734914 124.042107l5.075599 8.029884-8.587586 3.941775c-61.593823 28.330232-182.569082 75.864852-300.745598 75.864852-118.500904 0-239.276618-47.25628-300.740482-75.426877l-8.651031-3.974521 5.163603-8.013511c92.321662-144.674007 106.119923-239.511979 106.119923-283.158035 0-151.428851 70.158896-241.833861 187.69073-241.833861l20.860097 0c20.270672 0 39.784098 2.950192 57.995879 8.764618 11.856026 3.828188 25.079188-3.088338 28.834722-14.944364 2.955308-9.237385-0.488117-19.426445-8.54563-25.366737l-2.297322-1.688455-1.057075-3.632737 0-17.572214c0-47.320749-38.302351-85.821621-85.373413-85.821621-47.064922 0-85.365226 38.500872-85.365226 85.821621l0 20.771069-5.384637 2.000564c-44.065612 16.479323-81.020268 46.659693-106.870006 87.267553-30.79947 48.368614-46.406936 111.034862-46.406936 186.257078 0 121.902374-116.668163 284.904819-117.839849 286.512433-3.866051 5.385661-5.257747 12.217253-3.773953 18.714224 1.458211 6.486738 5.672186 12.002358 11.524474 15.154141 4.151553 2.238994 102.876042 55.05592 225.548966 81.556481l4.725628 1.016143 1.409093 4.592598c9.80225 30.576389 26.604938 56.546877 48.523133 75.069743 43.73406 36.868699 104.090707 36.910655 147.84421 0 21.942755-18.531052 38.744419-44.529169 48.573275-75.157747l1.476631-4.536316 4.614088-1.019213c120.531144-26.146497 215.19413-76.382645 225.591945-82.020038C872.34244 765.455549 876.517529 759.933789 877.970624 753.433748L877.970624 753.433748zM472.876446 152.411225c0-21.855774 17.704221-39.636742 39.452547-39.636742 21.766746 0 39.470967 17.780969 39.470967 39.636742l0 10.484795-15.211447-1.292436c-4.526083-0.463558-9.184173-0.926092-13.82282-0.926092l-20.860097 0c-6.491855 0-13.246699 0.286526-20.089547 0.877997l-8.939603 0.73678L472.876446 152.411225 472.876446 152.411225zM575.709509 875.125321c-16.383132 24.282033-39.496549 38.217417-63.380516 38.217417-23.908526 0-47.02706-13.934361-63.384609-38.22765l-9.886161-14.680351 17.572214 1.823532c40.930201 4.28356 70.465888 4.28356 111.390973 0l17.640776-1.823532L575.709509 875.125321 575.709509 875.125321zM575.709509 875.125321" p-id="3656"></path></svg>