<?xml version="1.0" standalone="no"?><!DOCTYPE svg PUBLIC "-//W3C//DTD SVG 1.1//EN" "http://www.w3.org/Graphics/SVG/1.1/DTD/svg11.dtd"><svg t="1509088498210" class="icon" style="" viewBox="0 0 1024 1024" version="1.1" xmlns="http://www.w3.org/2000/svg" p-id="2362" xmlns:xlink="http://www.w3.org/1999/xlink" width="200" height="200"><defs><style type="text/css"></style></defs><path d="M512 93.866667l124.586667 252.586667c6.826667 15.36 22.186667 25.6 39.253333 29.013333l278.186667 40.96L752.64 612.693333c-11.946667 11.946667-18.773333 29.013333-15.36 46.08L785.066667 936.96l-249.173333-131.413333C529.066667 802.133333 520.533333 798.72 512 798.72s-17.066667 1.706667-23.893333 6.826667L238.933333 936.96l47.786667-278.186667c3.413333-17.066667-3.413333-34.133333-15.36-46.08L69.973333 416.426667 348.16 375.466667c17.066667-1.706667 32.426667-13.653333 39.253333-29.013333L512 93.866667M512 40.96c-6.826667 0-13.653333 3.413333-17.066667 10.24l-138.24 281.6c-3.413333 5.12-8.533333 8.533333-13.653333 10.24L32.426667 387.413333c-15.36 1.706667-20.48 20.48-10.24 32.426667l223.573333 218.453333c5.12 3.413333 6.826667 10.24 5.12 17.066667l-52.906667 308.906667c-1.706667 11.946667 6.826667 22.186667 18.773333 22.186667 3.413333 0 5.12 0 8.533333-1.706667L503.466667 836.266667c3.413333-1.706667 5.12-1.706667 8.533333-1.706667s5.12 0 8.533333 1.706667l276.48 145.066667c3.413333 1.706667 5.12 1.706667 8.533333 1.706667 10.24 0 20.48-10.24 18.773333-22.186667l-52.906667-308.906667c-1.706667-6.826667 1.706667-11.946667 5.12-17.066667l223.573333-218.453333c10.24-10.24 5.12-29.013333-10.24-32.426667L680.96 341.333333c-6.826667-1.706667-11.946667-5.12-13.653333-10.24L529.066667 51.2C525.653333 44.373333 518.826667 40.96 512 40.96L512 40.96z" p-id="2363"></path></svg>