<?xml version="1.0" standalone="no"?><!DOCTYPE svg PUBLIC "-//W3C//DTD SVG 1.1//EN" "http://www.w3.org/Graphics/SVG/1.1/DTD/svg11.dtd"><svg t="1503825445456" class="icon" style="" viewBox="0 0 1024 1024" version="1.1" xmlns="http://www.w3.org/2000/svg" p-id="6630" xmlns:xlink="http://www.w3.org/1999/xlink" width="200" height="200"><defs><style type="text/css"></style></defs><path d="M848.583828 976.792838H175.485757c-70.738088 0-128.278595-57.540508-128.278595-128.278595V175.416172c0-70.668503 57.540508-128.20901 128.278595-128.20901h673.098071c70.668503 0 128.20901 57.540508 128.20901 128.20901v673.098071c0 70.738088-57.540508 128.278595-128.20901 128.278595zM175.485757 118.713752c-31.284517 0-56.772005 25.417903-56.772005 56.70242v673.098071c0 31.284517 25.488511 56.772005 56.772005 56.772005h673.098071c31.284517 0 56.70242-25.488511 56.70242-56.772005V175.416172c0-31.284517-25.417903-56.70242-56.70242-56.70242H175.485757z" fill="" p-id="6631"></path></svg>