<?xml version="1.0" standalone="no"?><!DOCTYPE svg PUBLIC "-//W3C//DTD SVG 1.1//EN" "http://www.w3.org/Graphics/SVG/1.1/DTD/svg11.dtd"><svg t="1508309674686" class="icon" style="" viewBox="0 0 1274 1024" version="1.1" xmlns="http://www.w3.org/2000/svg" p-id="1135" xmlns:xlink="http://www.w3.org/1999/xlink" width="39.8125" height="32"><defs><style type="text/css"></style></defs><path d="M862.049248 309.81744c14.595825 0 29.053048 1.055505 43.392993 2.601447C866.452517 133.185569 672.303524 0 450.679411 0 202.912885 0 0 166.705857 0 378.414618c0 122.150742 67.477703 222.509032 180.310146 300.360539l-45.056213 133.825269 157.536821-77.968785c56.400229 10.981519 101.627029 22.282888 157.877995 22.282888 14.148035 0 28.189453-0.671685 42.102931-1.759175-8.8172-29.746057-13.913478-60.899453-13.913478-93.225634C478.868864 467.567494 647.888302 309.81744 862.049248 309.81744zM619.688188 189.191317c33.946754 0 56.378906 22.016347 56.378906 55.515311 0 33.349701-22.432152 55.717882-56.378906 55.717882-33.776167 0-67.64829-22.368182-67.64829-55.717882C552.039898 211.207663 585.901359 189.191317 619.688188 189.191317zM304.26271 300.424509c-33.797491 0-67.872185-22.368182-67.872185-55.717882 0-33.498964 34.085356-55.515311 67.872185-55.515311 33.797491 0 56.250966 22.016347 56.250966 55.515311C360.503014 278.056328 338.060201 300.424509 304.26271 300.424509z" p-id="1136" fill="#1afa29"></path><path d="M1273.376438 656.620209c0-177.889947-180.299485-322.909969-382.828549-322.909969-214.480795 0-383.361633 145.020022-383.361633 322.909969 0 178.156489 168.880837 322.814014 383.361633 322.814014 44.853642 0 90.13375-11.130782 135.23261-22.282888l123.654037 66.838003-33.914769-111.233193C1205.962705 845.779541 1273.376438 756.925191 1273.376438 656.620209zM766.275475 600.92365c-22.453475 0-45.066875-22.016347-45.066875-44.533791 0-22.133625 22.6134-44.469821 45.066875-44.469821 34.074694 0 56.378906 22.336197 56.378906 44.469821C822.654381 578.917966 800.350169 600.92365 766.275475 600.92365zM1014.201926 600.92365c-22.304212 0-44.800333-22.016347-44.800333-44.533791 0-22.133625 22.496122-44.469821 44.800333-44.469821 33.754844 0 56.378906 22.336197 56.378906 44.469821C1070.580832 578.917966 1047.946109 600.92365 1014.201926 600.92365z" p-id="1137" fill="#1afa29"></path></svg>