<?xml version="1.0" standalone="no"?><!DOCTYPE svg PUBLIC "-//W3C//DTD SVG 1.1//EN" "http://www.w3.org/Graphics/SVG/1.1/DTD/svg11.dtd"><svg t="1509088532702" class="icon" style="" viewBox="0 0 1024 1024" version="1.1" xmlns="http://www.w3.org/2000/svg" p-id="3024" xmlns:xlink="http://www.w3.org/1999/xlink" width="200" height="200"><defs><style type="text/css"></style></defs><path d="M106.953917 902.681934c-8.082072 0-15.908318-3.193739-21.706371-8.991792-6.832615-6.832615-10.048867-16.482393-8.682753-26.049283l33.060977-231.42479c2.617617-18.323321 11.876492-36.232203 26.071795-50.426483L656.012951 65.473177c23.723308-23.723308 53.372581-39.156812 83.48746-43.458791 32.892131-4.701069 63.799048 4.63967 84.781942 25.622564L931.300738 154.655336c20.983917 20.982894 30.323633 51.885717 25.623587 84.782965-4.300956 30.114878-19.735483 59.764152-43.459814 83.48746L393.149125 843.241147c-14.196327 14.195304-32.104185 23.453155-50.426483 26.071795 0 0 0 0-0.001023 0l-231.423767 33.060977C109.84885 902.579603 108.396779 902.681934 106.953917 902.681934zM338.380754 838.921771l0.010233 0L338.380754 838.921771zM756.23863 82.211397c-3.049452 0-5.820566 0.264013-8.054443 0.583285-16.802688 2.400676-34.573423 11.911284-48.756447 26.093285L179.113377 629.204375c-4.721535 4.721535-7.975649 10.589173-8.705266 15.694447l-27.272133 190.904934 190.903911-27.27111c5.106298-0.730641 10.973936-3.984754 15.696494-8.707312L870.049722 279.509948c14.182001-14.182001 23.692608-31.952736 26.093285-48.755424 1.139963-7.982812 1.584078-22.843264-8.257058-32.6844L780.867564 91.052762C773.779122 83.96432 764.087389 82.211397 756.23863 82.211397z" p-id="3025"></path><path d="M829.329299 394.344347c-7.856945 0-15.712867-2.997264-21.707394-8.991792L593.585133 171.316807c-11.989055-11.989055-11.989055-31.426757 0-43.414789 11.988032-11.989055 31.426757-11.989055 43.414789 0L851.036693 341.937766c11.989055 11.989055 11.989055 31.426757 0 43.415812C845.043189 391.347083 837.186244 394.344347 829.329299 394.344347z" p-id="3026"></path><path d="M966.039937 1003.177765 57.960063 1003.177765c-16.954137 0-30.699186-13.745049-30.699186-30.699186s13.745049-30.699186 30.699186-30.699186l908.079874 0c16.954137 0 30.699186 13.745049 30.699186 30.699186S982.994074 1003.177765 966.039937 1003.177765z" p-id="3027"></path></svg>