<?xml version="1.0" standalone="no"?><!DOCTYPE svg PUBLIC "-//W3C//DTD SVG 1.1//EN" "http://www.w3.org/Graphics/SVG/1.1/DTD/svg11.dtd"><svg t="1509085619083" class="icon" style="" viewBox="0 0 1024 1024" version="1.1" xmlns="http://www.w3.org/2000/svg" p-id="2359" xmlns:xlink="http://www.w3.org/1999/xlink" width="200" height="200"><defs><style type="text/css"></style></defs><path d="M739.97588 980.671896 423.433696 980.671896c-12.893658 0-23.37755-10.355979-23.37755-23.088346 0-12.733367 10.483892-23.059366 23.37755-23.059366l316.542184 0c67.259198 0 99.753167-36.48906 115.105558-67.104303 0.769478-1.848747 1.023306-3.549593 1.410044-5.567225 2.907029-14.612093 7.835687-39.138264 40.167566-77.879997 23.31919-27.943854 19.3209-57.629727 14.618089-91.982436-1.470003-10.903607-2.943005-21.749254-3.547595-32.493969-2.690176-45.836923 9.334671-65.626305 26.030351-93.072697 3.039939-4.92666 6.301727-10.293021 9.791361-16.310941 15.317615-26.41609 14.453201-59.199263-2.304438-87.664364-20.469921-34.802204-58.979812-55.621688-102.956795-55.621688-77.909977 0-167.717887 2.653601-168.583301 2.653601-7.771731 0.284807-13.883587-2.718757-18.455487-7.995979-4.636856-5.277422-6.526575-12.348028-5.277422-19.18939 0.319783-1.599516 29.648698-160.39845 29.648698-230.186933 0-71.57787-54.305981-79.289042-77.59519-79.289042-36.810043 0-66.744547 39.179836-66.744547 87.384553 0 59.899188 0 80.119479-31.667529 123.836239-43.689179 60.319503-126.176652 161.547671-188.313923 161.547671l-39.375104 0 0 511.965088c0 12.763346-10.489288 23.090345-23.382547 23.090345L114.726799 980.642716c-49.029558 0-88.948893-39.372306-88.948893-87.765295L25.777907 487.20067c0-48.360012 39.889355-87.729719 88.948893-87.729719l196.603703 0c27.826534 0 89.649018-58.470157 150.222749-142.196791 22.968827-31.698908 22.968827-39.150456 22.968827-97.040007 0-74.906613 49.829616-133.531666 113.477262-133.531666 57.379896 0 124.385267 32.878708 124.385267 125.435555 0 56.100764-16.791615 160.497183-25.426761 210.551246 33.162516-0.798459 89.80791-1.948679 141.331777-1.948679 60.833555 0 114.499969 29.354498 143.416364 78.579523 25.202912 42.858342 26.131283 92.881826 2.46333 133.721937-3.678506 6.337703-7.101185 11.963888-10.270037 17.181351-15.511483 25.45674-21.333536 34.990077-19.474796 66.614635 0.57561 9.565515 1.949678 19.289921 3.22981 29.016327 5.085552 37.388451 11.417259 83.924899-24.883129 127.424206-24.82317 29.773613-28.179894 46.465496-30.420375 57.498816-1.054285 5.277422-2.174526 10.744715-4.920664 16.251981C866.915415 947.698452 811.169411 980.671896 739.97588 980.671896L739.97588 980.671896zM114.726799 445.621461c-23.222655 0-42.15322 18.645758-42.15322 41.579209l0 405.745904c0 22.958434 18.930565 41.608789 42.15322 41.608789l110.438922 0L225.165722 445.621461 114.726799 445.621461 114.726799 445.621461z" p-id="2360" fill="#ffffff"></path></svg>